<?xml version="1.0" standalone="no"?>
<!DOCTYPE svg PUBLIC "-//W3C//DTD SVG 20010904//EN"
 "http://www.w3.org/TR/2001/REC-SVG-20010904/DTD/svg10.dtd">
<svg version="1.0" xmlns="http://www.w3.org/2000/svg"
 width="784.000000pt" height="784.000000pt" viewBox="0 0 784.000000 784.000000"
 preserveAspectRatio="xMidYMid meet">
<metadata>
Created by potrace 1.11, written by Peter Selinger 2001-2013
</metadata>
<g transform="translate(0.000000,784.000000) scale(0.100000,-0.100000)"
fill="#000000" stroke="none">
<path d="M3515 6861 c-28 -10 -71 -31 -95 -46 -60 -38 -186 -164 -248 -250
-29 -38 -55 -75 -59 -81 -5 -5 -15 -21 -23 -35 -8 -13 -37 -62 -66 -109 -42
-70 -165 -302 -170 -320 0 -3 -13 -32 -28 -65 -15 -33 -37 -79 -47 -103 -76
-166 -218 -557 -273 -752 -15 -52 -30 -102 -33 -110 -8 -19 -11 -30 -17 -59
-3 -13 -10 -38 -15 -55 -19 -61 -60 -223 -89 -361 -30 -135 -35 -163 -47 -250
-4 -22 -8 -51 -11 -65 -12 -69 -15 -224 -4 -274 34 -164 163 -227 512 -251 69
-5 86 -4 84 7 -29 145 -40 248 -40 378 0 85 11 246 19 285 4 18 9 53 20 140 3
17 7 41 10 55 3 14 8 41 11 60 3 19 7 42 9 50 2 8 7 29 10 45 5 33 6 36 30
145 10 41 19 84 20 95 2 11 27 103 55 205 28 102 53 195 56 208 10 47 166 507
175 517 5 5 9 14 9 21 0 6 7 28 15 48 8 20 16 39 16 43 1 5 10 24 20 43 11 19
19 39 19 43 0 14 130 270 146 288 7 8 14 19 14 22 0 10 29 45 74 89 44 45 76
47 86 7 16 -56 18 -595 5 -969 -19 -559 -7 -729 67 -920 37 -95 80 -163 141
-222 32 -32 61 -57 65 -56 4 0 25 -7 47 -17 25 -11 63 -17 100 -17 75 1 80 2
135 31 74 38 142 117 191 221 33 71 53 121 89 225 22 66 44 127 47 135 3 8 7
20 8 25 1 6 16 53 33 105 39 119 82 261 172 560 111 368 167 520 183 493 6
-10 0 -526 -7 -613 -19 -214 -29 -448 -30 -640 0 -304 23 -456 88 -580 28 -53
96 -115 141 -130 86 -28 240 -7 330 46 46 27 125 96 125 110 0 5 -21 41 -46
79 -45 67 -104 181 -108 207 -1 7 -5 19 -9 26 -5 6 -6 12 -2 12 3 0 1 8 -4 18
-5 10 -12 38 -16 62 -4 25 -8 47 -10 50 -1 3 -6 30 -9 60 -4 30 -10 82 -15
114 -4 33 -8 77 -7 98 1 21 -1 38 -4 38 -3 0 -6 15 -6 33 -1 17 -4 73 -8 122
-10 138 -16 323 -21 620 -3 238 -9 376 -19 425 -14 71 -22 102 -43 153 -63
155 -150 229 -263 223 -143 -9 -250 -137 -375 -451 -15 -38 -31 -79 -36 -90
-5 -11 -15 -38 -23 -60 -8 -22 -31 -85 -51 -140 -20 -55 -38 -107 -40 -115 -5
-19 -239 -704 -266 -780 -11 -30 -21 -59 -22 -65 -11 -40 -50 -146 -52 -143
-4 4 -13 80 -20 158 -4 54 -13 264 -20 490 -19 597 -25 683 -60 910 -21 136
-22 139 -55 242 -51 155 -121 251 -220 300 -61 29 -176 34 -245 9z"/>
<path d="M5792 6305 c-94 -29 -164 -78 -216 -153 -27 -39 -71 -162 -58 -162 4
0 7 -24 8 -53 1 -117 91 -226 240 -292 60 -27 194 -65 226 -65 10 0 18 -3 18
-7 0 -3 -20 -47 -44 -97 -44 -93 -80 -187 -90 -241 -4 -16 -9 -41 -12 -55 -12
-49 -10 -186 2 -233 68 -258 364 -340 654 -180 36 20 67 39 70 42 3 3 30 25
60 47 133 99 348 349 417 484 10 19 21 37 24 40 15 12 79 159 89 204 16 72 1
109 -55 136 -25 12 -52 20 -62 18 -9 -2 -32 -30 -50 -63 -18 -33 -41 -75 -50
-92 -32 -59 -116 -198 -122 -203 -3 -3 -28 -39 -56 -80 -27 -41 -52 -77 -55
-80 -3 -3 -18 -23 -35 -45 -52 -70 -180 -189 -231 -214 -27 -14 -71 -27 -99
-29 -44 -3 -53 -1 -74 22 -16 17 -25 41 -29 74 -8 87 35 198 154 393 114 189
136 271 87 329 -26 32 -104 72 -163 85 -64 14 -123 26 -155 31 -22 3 -49 8
-60 11 -11 3 -31 7 -45 9 -41 5 -73 11 -101 19 l-26 7 23 48 c13 27 32 80 42
117 17 64 19 89 8 138 -3 11 -5 22 -5 25 -1 3 -11 16 -24 31 -42 47 -118 60
-205 34z"/>
<path d="M7335 5085 c-150 -42 -247 -153 -239 -275 1 -25 3 -45 4 -45 1 0 3
-7 5 -15 16 -78 118 -212 193 -253 72 -40 186 -41 260 -3 18 9 34 16 37 16 27
-2 157 120 189 176 52 94 68 197 39 255 -60 120 -307 193 -488 144z"/>
<path d="M1245 4109 c19 -60 141 -185 191 -195 36 -7 199 0 242 10 37 8 145
10 170 2 44 -14 21 44 -47 116 -55 59 -99 69 -328 72 -109 1 -206 6 -217 11
-16 7 -17 5 -11 -16z"/>
<path d="M3888 4115 c-2 -2 -32 -6 -68 -9 -55 -4 -111 -14 -248 -40 -12 -3
-26 -7 -30 -10 -5 -3 -19 -7 -33 -9 -42 -8 -222 -78 -279 -110 -92 -50 -159
-98 -180 -127 -42 -59 -13 -128 71 -165 36 -17 43 -17 53 -4 36 46 266 177
266 151 0 -5 -6 -14 -12 -20 -7 -7 -13 -16 -14 -20 0 -4 -3 -14 -7 -22 -38
-97 -110 -321 -133 -412 -33 -135 -43 -176 -48 -199 -3 -13 -8 -35 -11 -49 -3
-14 -8 -34 -10 -45 -2 -11 -9 -47 -15 -80 -7 -33 -14 -69 -15 -80 -2 -11 -6
-33 -9 -50 -9 -56 -25 -170 -31 -225 -3 -30 -8 -68 -11 -85 -22 -148 -22 -465
1 -629 8 -54 49 -133 88 -167 31 -27 87 -59 111 -63 6 -1 16 -4 21 -8 12 -7
204 -3 225 5 8 3 34 11 58 17 46 12 49 20 27 63 -20 39 -52 143 -64 214 -6 32
-13 67 -15 78 -2 11 -7 47 -10 80 -4 33 -9 80 -12 105 -5 51 -6 410 0 485 4
56 15 177 20 215 7 56 20 155 21 160 1 3 5 30 10 60 5 30 9 57 10 60 1 3 7 32
14 65 34 157 85 333 116 405 2 3 6 15 10 28 4 13 22 51 40 85 32 63 36 107 13
134 -11 14 -15 13 82 19 30 1 55 3 55 4 0 1 28 2 63 3 34 1 62 -1 62 -4 0 -3
12 -5 28 -6 49 0 134 -23 196 -53 328 -156 228 -595 -177 -779 -26 -12 -51
-20 -55 -17 -13 8 -103 18 -152 18 -99 -1 -170 -57 -170 -134 0 -42 34 -95 76
-120 30 -17 32 -17 90 4 51 18 81 22 215 22 146 1 158 0 203 -24 60 -30 114
-95 137 -163 26 -75 18 -235 -14 -274 -5 -7 -6 -13 -3 -13 13 0 -52 -86 -89
-118 -38 -34 -114 -72 -149 -76 -12 -1 -26 -5 -32 -8 -5 -4 -52 -5 -104 -3
-106 3 -198 25 -277 66 l-52 27 -34 -37 c-42 -46 -42 -88 -3 -155 46 -79 144
-136 291 -171 60 -14 292 -15 345 -1 14 3 34 8 45 10 11 2 46 13 78 25 167 58
291 186 350 358 24 69 16 223 -16 312 -15 41 -34 82 -42 91 -8 9 -15 22 -15
28 0 26 -156 168 -220 200 -36 18 -68 32 -73 32 -4 0 -22 7 -39 16 l-32 17 54
17 c115 37 287 146 365 232 149 164 185 342 105 513 -38 81 -149 183 -255 235
-50 24 -99 47 -110 52 -29 11 -134 38 -175 44 -19 2 -55 9 -80 13 -25 5 -52 9
-60 10 -51 3 -330 8 -332 6z"/>
<path d="M6493 4070 c-76 -17 -166 -94 -193 -166 -18 -46 -14 -138 9 -181 20
-39 67 -88 111 -115 31 -19 123 -54 133 -50 12 4 8 -8 -26 -72 -66 -120 -125
-214 -147 -236 -3 -3 -14 -18 -23 -33 -10 -16 -50 -61 -88 -102 -152 -159
-203 -135 -195 92 3 65 7 134 10 153 3 19 9 58 13 85 4 28 7 93 7 146 0 87 -2
102 -29 155 -25 48 -39 62 -80 83 -43 21 -63 25 -142 24 -119 0 -123 -2 -113
-50 9 -39 6 -295 -4 -370 -3 -24 -8 -62 -11 -84 -6 -50 -35 -92 -122 -176 -61
-60 -115 -86 -141 -69 -22 13 -30 134 -18 256 16 166 20 227 20 317 1 110 -7
132 -68 177 -24 18 -42 21 -139 21 -62 -1 -129 -4 -149 -8 -37 -8 -38 -8 -31
-45 10 -48 9 -350 -1 -467 -25 -299 -11 -389 72 -472 48 -49 96 -65 188 -66
103 0 216 58 331 172 l61 61 7 -33 c18 -81 80 -163 144 -190 42 -17 52 -18
126 -19 116 -1 234 62 375 201 42 42 92 96 110 120 l34 44 11 -64 c13 -77 33
-117 77 -154 83 -70 165 -84 313 -51 15 3 139 67 145 75 3 3 23 19 45 36 154
115 351 390 384 534 8 37 6 45 -12 67 -12 13 -36 28 -53 33 -35 10 -29 17 -94
-104 -24 -44 -47 -81 -52 -83 -4 -2 -8 -10 -8 -17 0 -8 -6 -20 -13 -27 -7 -7
-21 -26 -31 -43 -140 -226 -315 -359 -385 -294 -26 25 -30 47 -17 119 7 43 40
111 133 272 23 40 46 93 51 116 9 38 7 46 -14 71 -37 44 -114 69 -324 105 -14
3 -35 5 -47 5 -28 1 -29 15 -3 68 11 23 22 61 24 85 2 23 5 48 7 53 4 17 -17
59 -40 79 -23 21 -75 27 -128 16z"/>
<path d="M2608 3315 c-2 -2 -15 -5 -28 -8 -70 -10 -132 -55 -155 -110 -20 -48
-19 -76 4 -130 56 -129 166 -179 282 -128 97 43 178 166 163 247 -13 68 -96
119 -211 128 -28 2 -53 3 -55 1z"/>
<path d="M1364 3209 c-49 -15 -98 -33 -109 -38 -11 -5 -51 -24 -90 -42 -38
-17 -117 -54 -175 -81 -128 -61 -284 -114 -365 -124 -102 -12 -208 -11 -260 3
-48 12 -85 10 -85 -6 0 -24 125 -155 190 -198 65 -44 179 -99 220 -107 19 -3
46 -8 60 -11 51 -10 219 -3 240 10 4 3 25 7 46 10 45 7 209 84 241 114 12 12
25 21 28 21 4 0 27 21 52 46 34 33 48 42 54 32 13 -21 0 -78 -34 -148 -29 -59
-54 -84 -117 -120 -21 -12 -2 -29 41 -35 39 -6 136 -7 159 -2 113 26 156 57
285 202 78 88 137 145 149 145 3 0 15 9 26 20 11 11 32 22 47 26 16 3 35 8 43
11 8 4 19 7 24 7 26 3 12 28 -31 57 -26 18 -50 35 -53 39 -5 6 -92 60 -145 90
-72 40 -198 84 -275 95 -19 3 -44 7 -56 9 -11 2 -60 -9 -110 -25z"/>
<path d="M6740 2563 c-59 -25 -101 -63 -123 -112 -50 -112 12 -226 148 -272
42 -14 46 -15 84 -23 13 -3 26 -7 28 -10 13 -13 -116 -209 -196 -298 -54 -60
-153 -135 -213 -162 -66 -29 -141 -28 -192 3 -40 25 -73 70 -58 80 79 49 169
148 210 231 23 47 27 67 27 145 0 73 -4 98 -22 130 -38 72 -99 112 -181 119
-156 13 -281 -68 -358 -232 -30 -63 -45 -84 -64 -89 -14 -3 -61 -21 -104 -40
-43 -18 -80 -32 -82 -30 -2 2 -6 21 -9 43 -16 113 -61 163 -140 158 -38 -3
-104 -30 -129 -54 -4 -5 -9 -30 -10 -57 -3 -57 -15 -88 -50 -130 -51 -60 -96
-45 -96 32 0 128 100 294 188 311 7 1 23 -9 36 -23 22 -24 26 -25 62 -13 22 7
53 22 69 33 17 11 31 21 33 22 9 7 10 51 0 69 -17 31 -29 41 -67 54 -77 27
-203 8 -309 -45 -74 -37 -222 -182 -222 -218 0 -7 -4 -16 -9 -20 -19 -11 -42
-118 -40 -178 3 -75 19 -123 55 -164 34 -39 65 -54 129 -59 70 -6 131 12 194
59 48 35 52 37 46 16 -5 -13 -16 -30 -26 -37 -57 -40 -170 -157 -248 -258 -51
-65 -120 -220 -129 -289 -7 -52 -7 -123 1 -159 31 -146 229 -193 380 -89 82
57 175 210 223 368 10 33 19 65 19 70 1 6 7 35 13 65 21 99 31 188 36 306 1
36 4 39 81 80 88 47 115 53 115 27 2 -69 44 -223 62 -223 4 0 8 -7 8 -15 0
-18 118 -135 136 -135 8 0 14 -3 14 -8 0 -11 71 -40 141 -56 113 -26 243 -7
354 52 28 15 52 29 55 33 3 3 23 18 45 34 22 16 67 56 100 87 58 56 60 57 69
35 10 -28 60 -64 107 -78 150 -45 328 54 493 273 61 82 126 203 128 239 2 47
-3 57 -34 72 -32 15 -32 15 -55 -16 -13 -17 -23 -34 -23 -39 0 -10 -94 -159
-143 -226 -97 -133 -197 -200 -245 -163 -48 37 -34 109 50 252 62 105 83 159
73 189 -14 43 -90 72 -250 95 -79 12 -77 8 -51 78 12 34 22 68 20 75 -1 6 -2
20 -3 30 -5 57 -80 84 -151 55z m-483 -370 c15 -42 6 -102 -23 -158 -25 -50
-67 -105 -79 -105 -4 0 -4 24 -1 53 3 28 5 59 5 67 1 8 1 29 1 45 1 31 34 105
54 117 21 14 34 8 43 -19z m-901 -643 c-25 -228 -99 -460 -155 -482 -54 -20
-66 60 -29 196 19 69 66 178 81 184 4 2 7 9 7 15 0 9 91 136 98 137 2 0 1 -22
-2 -50z"/>
<path d="M2335 2264 c-21 -5 -110 -38 -160 -59 -43 -18 -290 -100 -355 -119
-90 -25 -120 -29 -227 -30 -116 -1 -150 -16 -86 -36 21 -7 65 -25 98 -41 66
-30 214 -81 285 -97 24 -6 89 -9 145 -8 94 2 107 5 220 51 66 27 156 69 200
93 44 24 117 61 162 83 73 37 81 43 74 62 -9 23 -112 81 -165 92 -43 9 -167
15 -191 9z"/>
<path d="M4217 1574 c-88 -23 -142 -74 -154 -146 -6 -42 22 -119 62 -165 89
-104 216 -99 329 13 64 64 89 171 53 222 -20 28 -97 82 -97 67 0 -3 -9 -1 -20
5 -30 16 -119 18 -173 4z"/>
<path d="M2905 1298 c-16 -6 -55 -28 -85 -49 -30 -21 -75 -45 -99 -55 -43 -17
-43 -17 -20 -30 50 -26 141 -42 216 -39 96 4 155 33 190 92 l24 42 -24 16
c-46 30 -151 42 -202 23z"/>
</g>
</svg>
